<svg xmlns="http://www.w3.org/2000/svg" height="300" width="300" viewBox="0 0 100 100"><path d="M67.9 19.3c-0.1-0.9-0.8-1.7-1.8-1.8 -2.9-0.3-5.8 0.4-8.2 2 0-0.1 0-0.2 0-0.4 0-5.2-2.3-10.2-6.4-13.5 -0.7-0.6-1.8-0.6-2.5 0 -4.1 3.3-6.4 8.3-6.4 13.5 0 0.2 0 0.5 0 0.7 -2.5-1.8-5.6-2.6-8.7-2.3 -0.9 0.1-1.7 0.8-1.8 1.8 -0.4 3.8 1 7.6 3.7 10.3 1.3 1.3 2.9 2.3 4.6 2.9 -2.8 2.6-4.6 6.3-4.6 10.4 0 4.2 2.3 17.7 4.7 31.5 0 0 0 0 0 0.1 0 0.3 0.1 0.5 0.2 0.8 0.6 3.1 1.1 6.3 1.7 9.3 0.3 1.7 0.5 2.9 0.7 3.6 1 5.5 3.3 6.6 6.9 6.6 3.7 0 6.1-1.1 6.9-6.7 0.2-1.1 0.7-3.9 1.3-7.4 2.9-15.7 5.9-32.9 5.9-37.7 0-4.1-1.8-7.8-4.6-10.4 1.7-0.6 3.3-1.6 4.6-2.9C66.9 26.9 68.3 23.1 67.9 19.3zM50.2 9.9c2.3 2.5 3.7 5.8 3.7 9.2 0 3.4-1.3 6.7-3.6 9.2 0 0 0 0 0 0 -2.4-2.5-3.7-5.8-3.7-9.2C46.6 15.7 47.9 12.4 50.2 9.9zM36.1 21.5c2 0.2 3.9 1.1 5.3 2.5 1.4 1.4 2.3 3.3 2.5 5.3 -2-0.2-3.9-1.1-5.3-2.5C37.2 25.3 36.3 23.5 36.1 21.5zM60.2 43c0 4.9-3.8 25.8-5.9 37 -0.7 3.7-1.2 6.4-1.3 7.5C52.5 90.8 52 90.8 50 90.8c-2 0-2.4 0-3-3.3 -0.1-0.7-0.3-1.9-0.7-3.6 -0.4-1.9-0.8-4.5-1.4-7.4h4.9c1.1 0 2-0.9 2-2s-0.9-2-2-2h-5.6c-0.3-1.6-0.6-3.4-0.9-5.1h6.5c1.1 0 2-0.9 2-2s-0.9-2-2-2h-7.2c-0.3-1.8-0.6-3.6-0.9-5.3h8.1c1.1 0 2-0.9 2-2s-0.9-2-2-2h-8.8c-0.8-5.1-1.3-9.3-1.3-11.1 0-5.6 4.6-10.2 10.2-10.2S60.2 37.4 60.2 43zM61.4 26.8c-1.4 1.4-3.3 2.3-5.3 2.5 0.2-2 1.1-3.9 2.5-5.3 1.4-1.4 3.3-2.3 5.3-2.5C63.7 23.5 62.8 25.3 61.4 26.8z"/></svg>